<svg style="position: absolute; width: 0; height: 0; overflow: hidden;" version="1.1"
   xmlns="http://www.w3.org/2000/svg">
   <defs>
      <symbol id="icon-phone" viewBox="0 0 40 40">
         <circle cx="20" cy="20" r="20"/>
         <path d="M27.76 23.9203C26.4636 22.8869 25.148 22.261 23.8675 23.2928L23.1029 23.9164C22.5435 24.3691 21.5034 26.4842 17.482 22.1728C13.4615 17.8668 15.854 17.1963 16.4143 16.7475L17.1831 16.1231C18.4568 15.089 17.9761 13.7871 17.0574 12.447L16.5031 11.6353C15.5802 10.2983 14.5753 9.4202 13.2982 10.4528L12.6081 11.0148C12.0437 11.398 10.4659 12.6437 10.0832 15.0101C9.62262 17.8496 11.0756 21.1011 14.4044 24.6688C17.7291 28.238 20.9842 30.0308 24.0677 29.9996C26.6303 29.9738 28.1779 28.6923 28.6619 28.2263L29.3545 27.6636C30.6282 26.6317 29.8368 25.5812 28.5396 24.5455L27.76 23.9203Z" fill="white" />
      </symbol>

      <symbol id="icon-open-time" viewBox="0 0 31 31">
         <path d="M26.4224 4.54586C23.5009 1.62414 19.6161 0.0151367 15.4844 0.0151367C11.3526 0.0151367 7.46789 1.62414 4.54635 4.54586C1.62462 7.4674 0.015625 11.3522 0.015625 15.4839C0.015625 19.6156 1.62462 23.5004 4.54635 26.4219C7.46789 29.3436 11.3526 30.9526 15.4844 30.9526C19.6161 30.9526 23.5009 29.3436 26.4224 26.4219C29.3441 23.5004 30.9531 19.6156 30.9531 15.4839C30.9531 11.3522 29.3441 7.4674 26.4224 4.54586ZM15.4844 28.5356C8.28778 28.5356 2.43262 22.6805 2.43262 15.4839C2.43262 8.28729 8.28778 2.43213 15.4844 2.43213C22.681 2.43213 28.5361 8.28729 28.5361 15.4839C28.5361 22.6805 22.681 28.5356 15.4844 28.5356ZM17.8009 16.1741L22.1979 20.5486L20.4932 22.2624L16.0435 17.835C15.8639 17.8778 15.677 17.9009 15.4844 17.9009C14.1496 17.9009 13.0674 16.8187 13.0674 15.4839C13.0674 14.6145 13.5266 13.8526 14.2155 13.4268V4.90955H15.424H16.6324V13.3566C17.3879 13.7654 17.9014 14.5645 17.9014 15.4839C17.9014 15.7237 17.8659 15.9552 17.8009 16.1741Z" fill="#E2E6E9" />
      </symbol>

      <symbol id="icon-star-full" viewBox="0 0 30 28">
         <path d="M12.3662 1.82936C13.5032 -0.255461 16.4968 -0.255466 17.6338 1.82936L19.9256 6.03174C20.3571 6.82292 21.1214 7.37822 22.0072 7.5441L26.7121 8.42517C29.0463 8.86228 29.9713 11.7093 28.3399 13.4349L25.0514 16.9132C24.4323 17.5681 24.1404 18.4666 24.2563 19.3603L24.8723 24.1072C25.1779 26.4621 22.756 28.2217 20.6107 27.2034L16.2865 25.1507C15.4724 24.7642 14.5276 24.7642 13.7135 25.1507L9.38927 27.2034C7.24399 28.2217 4.82214 26.4621 5.12772 24.1072L5.74367 19.3603C5.85964 18.4666 5.5677 17.5681 4.94858 16.9132L1.66009 13.4349C0.0286615 11.7093 0.953722 8.86228 3.28786 8.42517L7.99278 7.5441C8.87858 7.37822 9.64288 6.82293 10.0744 6.03174L12.3662 1.82936Z" fill="#FFB648" />
      </symbol>

      <symbol id="icon-star-half" viewBox="0 0 30 28">
         <path d="M12.3662 1.82936C13.5032 -0.255461 16.4968 -0.255466 17.6338 1.82936L19.9256 6.03174C20.3571 6.82292 21.1214 7.37822 22.0072 7.5441L26.7121 8.42517C29.0463 8.86228 29.9713 11.7093 28.3399 13.4349L25.0514 16.9132C24.4323 17.5681 24.1404 18.4666 24.2563 19.3603L24.8723 24.1072C25.1779 26.4621 22.756 28.2217 20.6107 27.2034L16.2865 25.1507C15.4724 24.7642 14.5276 24.7642 13.7135 25.1507L9.38927 27.2034C7.24399 28.2217 4.82214 26.4621 5.12772 24.1072L5.74367 19.3603C5.85964 18.4666 5.5677 17.5681 4.94858 16.9132L1.66009 13.4349C0.0286615 11.7093 0.953722 8.86228 3.28786 8.42517L7.99278 7.5441C8.87858 7.37822 9.64288 6.82293 10.0744 6.03174L12.3662 1.82936Z" fill="#D7D1C7" />
      </symbol>

      <symbol id="icon-link-arrow" viewBox="0 0 53 16">
         <path d="M52.7071 8.70711C53.0976 8.31658 53.0976 7.68342 52.7071 7.29289L46.3431 0.928932C45.9526 0.538408 45.3195 0.538408 44.9289 0.928932C44.5384 1.31946 44.5384 1.95262 44.9289 2.34315L50.5858 8L44.9289 13.6569C44.5384 14.0474 44.5384 14.6805 44.9289 15.0711C45.3195 15.4616 45.9526 15.4616 46.3431 15.0711L52.7071 8.70711ZM0 9H52V7H0V9Z" fill="#1E1B1B"/>
      </symbol>
   </defs>
</svg>